Coordinates
version=1
nRows=13
nColumns=63
inDegrees=yes

Units are S.I. units (second, meters, Newtons, ...)
If the header above contains a line with 'inDegrees', this indicates whether rotational values are in degrees (yes) or radians (no).

endheader
time	pelvis_tilt	pelvis_list	pelvis_rotation	pelvis_tx	pelvis_ty	pelvis_tz	hip_flexion_r	hip_adduction_r	hip_rotation_r	knee_angle_r	knee_angle_r_beta	ankle_angle_r	subtalar_angle_r	mtp_angle_r	hip_flexion_l	hip_adduction_l	hip_rotation_l	knee_angle_l	knee_angle_l_beta	ankle_angle_l	subtalar_angle_l	mtp_angle_l	L5_S1_Flex_Ext	L5_S1_Lat_Bending	L5_S1_axial_rotation	L4_L5_Flex_Ext	L4_L5_Lat_Bending	L4_L5_axial_rotation	L3_L4_Flex_Ext	L3_L4_Lat_Bending	L3_L4_axial_rotation	L2_L3_Flex_Ext	L2_L3_Lat_Bending	L2_L3_axial_rotation	L1_L2_Flex_Ext	L1_L2_Lat_Bending	L1_L2_axial_rotation	L1_T12_Flex_Ext	L1_T12_Lat_Bending	L1_T12_axial_rotation	Abs_r3	Abs_r2	Abs_r1	Abs_t1	Abs_t2	neck_flexion	neck_bending	neck_rotation	arm_flex_r	arm_add_r	arm_rot_r	elbow_flex_r	pro_sup_r	wrist_flex_r	wrist_dev_r	arm_flex_l	arm_add_l	arm_rot_l	elbow_flex_l	pro_sup_l	wrist_flex_l	wrist_dev_l
0.960784	7.495439	-6.425274	82.539232	0.459368	0.791314	0.697074	3.978924	3.495509	11.039367	1.574262	0.027476	18.881126	-6.083127	0.000000	1.214801	-3.393660	11.410001	0.899477	0.015699	18.770481	-15.927805	0.000000	0.233506	1.063646	1.017445	0.433643	1.414649	1.081035	0.383626	2.586149	1.081035	0.266873	2.586149	0.890264	0.216833	2.168987	0.826674	0.133425	1.647588	0.763083	1.667906	12.032176	5.658721	0.000000	0.000000	15.582614	-6.587406	2.688945	-2.516090	-22.665402	13.710516	103.140298	78.305807	-13.073303	6.263670	32.816608	-19.802144	56.513474	95.902617	82.026749	-4.565811	22.321494
0.980392	7.125080	-6.724880	81.655684	0.460583	0.791418	0.697651	4.783313	3.364487	11.302429	2.262711	0.039492	19.321353	-5.871884	0.000000	1.499767	-3.099630	10.711535	0.979073	0.017088	18.937480	-15.691110	0.000000	0.244561	1.059127	1.062140	0.454173	1.408639	1.128524	0.401788	2.575162	1.128524	0.279508	2.575162	0.929373	0.227099	2.159773	0.862989	0.139742	1.640588	0.796605	1.746871	11.981061	5.907306	0.000000	0.000000	14.899183	-7.683091	4.436473	-2.701029	-22.639374	10.937069	107.072714	77.282569	-12.541585	6.448357	33.681860	-18.670590	55.666879	96.392091	80.304897	-4.155732	18.137246
1.000000	6.774224	-7.065536	80.776745	0.461892	0.791283	0.698492	5.755492	3.307282	11.466914	3.102507	0.054149	20.043766	-5.509673	0.000000	1.868005	-2.862737	9.828498	1.113973	0.019443	19.273614	-15.181702	0.000000	0.255708	1.051966	1.111819	0.474875	1.399115	1.181307	0.420103	2.557751	1.181307	0.292249	2.557751	0.972841	0.237451	2.145170	0.903353	0.146112	1.629496	0.833864	1.826497	11.900054	6.183602	0.000000	0.000000	14.307228	-8.832070	6.248380	-2.548884	-22.538927	8.583358	110.553239	76.555853	-12.074652	6.536947	34.038271	-17.158357	54.382777	96.555659	78.213652	-4.858077	13.664389
1.019608	6.429920	-7.444440	79.924127	0.463276	0.790916	0.699577	6.893510	3.310435	11.543020	4.091577	0.071411	21.022462	-5.032320	0.000000	2.326954	-2.667699	8.870628	1.304541	0.022769	19.728501	-14.534352	0.000000	0.265777	1.039110	1.161338	0.493574	1.382016	1.233921	0.436645	2.526492	1.233921	0.303756	2.526492	1.016170	0.246800	2.118953	0.943587	0.151865	1.609581	0.871003	1.898416	11.754621	6.459012	0.000000	0.000000	13.828095	-10.005971	8.102378	-2.106674	-22.381185	6.684528	113.598221	76.180681	-11.651789	6.548041	33.790891	-15.306322	52.622370	96.525789	76.225998	-6.424519	9.122269
1.039216	6.082022	-7.849507	79.108287	0.464804	0.790323	0.700871	8.172150	3.375233	11.633801	5.220244	0.091110	22.193336	-4.613625	0.000000	2.875401	-2.518245	7.728315	1.566534	0.027341	20.327457	-13.579209	0.000000	0.273638	1.015994	1.207974	0.508174	1.351272	1.283472	0.449561	2.470288	1.283472	0.312741	2.470288	1.056977	0.254101	2.071815	0.981479	0.156357	1.573775	0.905981	1.954572	11.493129	6.718389	0.000000	0.000000	13.422500	-11.146528	9.906122	-1.444663	-22.214480	5.293780	116.251009	76.235415	-11.300910	6.486064	32.932445	-13.190123	50.425508	96.443204	75.056735	-8.371431	4.691060
1.058824	5.713264	-8.261368	78.357445	0.466495	0.789515	0.702363	9.550395	3.467921	11.728297	6.466860	0.112868	23.506814	-4.276643	0.000000	3.506856	-2.391503	6.428816	1.910736	0.033349	21.047827	-12.336103	0.000000	0.276270	0.977817	1.243104	0.513062	1.300497	1.320798	0.453884	2.377464	1.320798	0.315749	2.377464	1.087716	0.256545	1.993965	1.010022	0.157861	1.514639	0.932328	1.973371	11.061263	6.913769	0.000000	0.000000	13.068971	-12.227314	11.584911	-0.583168	-22.091993	4.448905	118.530599	76.786131	-10.975357	6.405526	31.558509	-10.928142	47.921821	96.457424	75.046804	-10.228149	0.429314
1.078431	5.318917	-8.661208	77.699196	0.468365	0.788502	0.704025	10.974535	3.566685	11.824974	7.798970	0.136118	24.883430	-4.066960	0.000000	4.207663	-2.274914	4.997764	2.346182	0.040949	21.869496	-10.824419	0.000000	0.271257	0.922084	1.257239	0.503752	1.226372	1.335816	0.445649	2.241955	1.335816	0.310020	2.241955	1.100084	0.251890	1.880314	1.021507	0.154997	1.428308	0.942929	1.937565	10.430798	6.992385	0.000000	0.000000	12.764078	-13.223656	13.080692	0.516483	-22.062548	4.188458	120.412449	77.782900	-10.625356	6.377305	29.813659	-8.647444	45.273158	96.669308	75.632656	-11.826293	-3.519463
1.098039	4.864711	-9.026361	77.147441	0.470443	0.787301	0.705829	12.403236	3.624593	11.942631	9.202435	0.160613	26.269590	-4.017678	0.000000	4.961584	-2.126799	3.478194	2.876875	0.050211	22.745647	-9.101278	0.000000	0.257543	0.844595	1.238399	0.478284	1.123312	1.315799	0.423118	2.053549	1.315799	0.294346	2.053549	1.083599	0.239155	1.722298	1.006199	0.147160	1.308278	0.928799	1.839606	9.554229	6.887604	0.000000	0.000000	12.552855	-14.081030	14.444742	1.930874	-22.113521	4.540885	121.834725	79.174772	-10.184193	6.529974	27.800157	-6.490796	42.541384	97.161729	76.721760	-13.186293	-7.057026
1.117647	4.374937	-9.346481	76.720403	0.472661	0.785945	0.707764	13.786262	3.635818	12.000995	10.621561	0.185381	27.643941	-4.033661	0.000000	5.752937	-1.955497	1.915066	3.500971	0.061103	23.669760	-7.215023	0.000000	0.233775	0.751049	1.174030	0.434144	0.998895	1.247407	0.384070	1.826101	1.247407	0.267182	1.826101	1.027276	0.217084	1.531540	0.953899	0.133579	1.163375	0.880522	1.669834	8.496019	6.529602	0.000000	0.000000	12.524872	-14.877719	15.793977	3.780570	-22.219704	5.578028	122.730933	80.556179	-9.633671	6.895898	25.589837	-4.513179	39.681254	97.990218	78.267647	-14.241496	-10.082982
1.137255	3.854091	-9.621123	76.395648	0.475085	0.784466	0.709750	15.078400	3.608079	12.049294	11.973578	0.208978	28.990927	-4.113160	0.000000	6.580088	-1.771782	0.334274	4.225950	0.073757	24.651195	-5.243901	0.000000	0.204051	0.642121	1.082215	0.378944	0.854020	1.149854	0.335236	1.561252	1.149854	0.233210	1.561252	0.946939	0.189482	1.309412	0.879300	0.116595	0.994645	0.811662	1.457519	7.263797	6.018958	0.000000	0.000000	12.579117	-15.685595	16.982442	5.981115	-22.312902	7.122517	123.130424	81.897169	-8.959842	7.700263	23.276134	-2.770275	36.807455	99.103043	80.113104	-15.343252	-12.565753
1.156863	3.298318	-9.844542	76.207022	0.477697	0.782910	0.711811	16.249452	3.511289	12.003854	13.200260	0.230388	30.327430	-4.125720	0.000000	7.440856	-1.561608	-1.205406	5.043682	0.088029	25.694974	-3.234445	0.000000	0.167225	0.518185	0.953657	0.310553	0.689185	1.013261	0.274733	1.259914	1.013261	0.191121	1.259914	0.834450	0.155285	1.056682	0.774846	0.095552	0.802668	0.715243	1.194468	5.861807	5.303955	0.000000	0.000000	12.740677	-16.501804	18.107248	8.591921	-22.284762	9.249317	122.969526	82.884335	-8.436704	8.673146	20.902009	-1.266420	33.894517	100.525007	81.769635	-16.585150	-14.373367
1.176471	2.720459	-10.072089	76.161751	0.480534	0.781269	0.713886	17.313845	3.356349	11.946029	14.225680	0.248285	31.585646	-4.136825	0.000000	8.382642	-1.343346	-2.667477	5.945637	0.103771	26.778938	-1.259619	0.000000	0.132633	0.382085	0.796029	0.246313	0.508173	0.845781	0.217903	0.929002	0.845781	0.151586	0.929002	0.696525	0.123163	0.779148	0.646774	0.075787	0.591850	0.597022	0.947385	4.322225	4.427274	0.000000	0.000000	12.924056	-17.302722	19.184950	11.526219	-22.092570	11.900058	122.306942	83.123097	-8.236622	9.704551	18.417043	0.021558	30.876354	102.237828	83.275403	-17.860274	-15.462392
1.196078	2.107936	-10.281110	76.236868	0.483637	0.779620	0.715961	18.221149	3.116348	11.874406	14.995842	0.261727	32.745396	-4.072784	0.000000	9.370329	-1.096946	-4.046186	6.921486	0.120803	27.872761	0.613426	0.000000	0.095187	0.230479	0.625325	0.176771	0.306537	0.664408	0.156382	0.560386	0.664408	0.108789	0.560386	0.547160	0.088390	0.469993	0.508077	0.054390	0.357012	0.468994	0.679910	2.607224	3.477872	0.000000	0.000000	13.067245	-18.002351	20.060477	14.669954	-21.729219	14.940766	121.233607	82.409938	-8.296030	10.657120	15.934597	1.077208	27.902253	104.172579	84.416630	-19.359387	-16.034603
